<svg width="592" height="416" viewBox="0 0 592 416" fill="none" xmlns="http://www.w3.org/2000/svg">
  <rect width="592" height="416" rx="6" fill="#F5F8FC" />
  <g opacity="0.25" filter="url(#filter0_bf_1414_1365)">
    <rect width="68.3331" height="66.0444" rx="8" transform="matrix(0.985853 0.167615 -0.19185 0.981424 260.671 160)" fill="url(#paint0_linear_1414_1365)" />
  </g>
  <path fill-rule="evenodd" clip-rule="evenodd" d="M294.04 210.446C292.439 208.44 289.39 208.44 287.788 210.446L266.48 237.137C264.388 239.757 266.253 243.633 269.606 243.633H312.223C312.234 243.633 312.245 243.633 312.256 243.633H332.633C335.985 243.633 337.851 239.757 335.759 237.137L324.324 222.813C322.723 220.808 319.673 220.808 318.072 222.813L310.993 231.681L294.04 210.446Z" fill="url(#paint1_linear_1414_1365)" />
  <ellipse cx="320.842" cy="206.531" rx="6.41303" ry="6.18366" fill="url(#paint2_linear_1414_1365)" />
  <defs>
    <filter id="filter0_bf_1414_1365" x="121.385" y="33.226" width="333.267" height="329.819" filterUnits="userSpaceOnUse" color-interpolation-filters="sRGB">
      <feFlood flood-opacity="0" result="BackgroundImageFix" />
      <feGaussianBlur in="BackgroundImageFix" stdDeviation="64" />
      <feComposite in2="SourceAlpha" operator="in" result="effect1_backgroundBlur_1414_1365" />
      <feBlend mode="normal" in="SourceGraphic" in2="effect1_backgroundBlur_1414_1365" result="shape" />
      <feGaussianBlur stdDeviation="32" result="effect2_foregroundBlur_1414_1365" />
    </filter>
    <linearGradient id="paint0_linear_1414_1365" x1="0" y1="0" x2="66.0061" y2="68.2935" gradientUnits="userSpaceOnUse">
      <stop stop-color="#5A7CFF" />
      <stop offset="1" stop-color="#5FC6FF" />
    </linearGradient>
    <linearGradient id="paint1_linear_1414_1365" x1="265.598" y1="208.942" x2="292.955" y2="264.965" gradientUnits="userSpaceOnUse">
      <stop stop-color="#5A7CFF" />
      <stop offset="1" stop-color="#5FC6FF" />
    </linearGradient>
    <linearGradient id="paint2_linear_1414_1365" x1="314.429" y1="200.347" x2="326.788" y2="213.165" gradientUnits="userSpaceOnUse">
      <stop stop-color="#5A7CFF" />
      <stop offset="1" stop-color="#5FC6FF" />
    </linearGradient>
  </defs>
</svg>